<svg xmlns="http://www.w3.org/2000/svg" xmlns:xlink="http://www.w3.org/1999/xlink" width="63.424" height="65.073" viewBox="0 0 63.424 65.073"><defs><style>.a{fill:url(#a);}.b{fill:#3d3e40;}</style><linearGradient id="a" x1="0.5" x2="0.5" y2="1" gradientUnits="objectBoundingBox"><stop offset="0" stop-color="#ff416c"/><stop offset="1" stop-color="#ff4b2b"/></linearGradient></defs><g transform="translate(0 0)"><path class="a" d="M254.7,9.782a10.017,10.017,0,0,1-20.028,0,10.017,10.017,0,0,1,20.028,0Zm0,0" transform="translate(-204.091 5.075)"/><path class="b" d="M143.839,428.608A10.52,10.52,0,0,1,133.332,418.1a2.1,2.1,0,0,1,4.2,0,6.3,6.3,0,1,0,12.608,0,2.1,2.1,0,0,1,4.2,0A10.52,10.52,0,0,1,143.839,428.608Zm0,0" transform="translate(-112.28 -363.536)"/><path class="b" d="M57.874,124.5H5.549A5.569,5.569,0,0,1,1.941,114.7a2.19,2.19,0,0,1,.254-.191A21.4,21.4,0,0,0,9.514,98.389V89.517a22.1,22.1,0,0,1,17.02-21.623,2.385,2.385,0,0,1,1.1,4.643,17.353,17.353,0,0,0-13.36,16.98v8.872A26.183,26.183,0,0,1,5.064,118.33c-.048.038-.089.073-.14.108a.788.788,0,0,0-.168.493.8.8,0,0,0,.793.795H57.874a.8.8,0,0,0,.793-.795.761.761,0,0,0-.171-.493c-.048-.035-.092-.07-.136-.108a25.925,25.925,0,0,1-6.662-8.716,2.378,2.378,0,1,1,4.3-2.038,21.249,21.249,0,0,0,5.242,6.945,2.741,2.741,0,0,1,.241.181,5.565,5.565,0,0,1-3.6,9.794Zm0,0" transform="translate(0 -67.829)"/><path class="b" d="M248.426,27.516a13.758,13.758,0,1,1,13.758-13.758A13.774,13.774,0,0,1,248.426,27.516Zm0-24.341a10.583,10.583,0,1,0,10.583,10.583A10.595,10.595,0,0,0,248.426,3.175Zm0,0" transform="translate(-204.217)"/></g></svg>