<svg xmlns="http://www.w3.org/2000/svg" width="143.952" height="31.823" viewBox="0 0 143.952 31.823"><defs><style>.a{fill:#fff;}</style></defs><g transform="translate(0.015)"><g transform="translate(-0.015)"><g transform="translate(32.947 7.654)"><path class="a" d="M48.142,21.7c.136.912,1.243,1.507,2.5,1.507,1.4,0,2.26-.565,2.26-1.341s-.588-1.055-2.26-1.364l-2.109-.377c-2.923-.5-4.52-2.185-4.52-4.678,0-3.224,2.757-5.273,6.554-5.273,4.241,0,6.614,1.936,6.637,5.032H52.9c0-.994-1.017-1.582-2.26-1.582s-2,.5-2,1.3.648,1.16,2.162,1.424l2.185.377c3.089.535,4.52,2,4.52,4.588,0,3.254-2.727,5.334-6.961,5.334s-6.78-1.793-6.833-4.972Z" transform="translate(-43.72 -10.162)"/><path class="a" d="M72.919,23.322H68.067l-.829,3.164H62.47l5.2-15.926h5.869l5.2,15.926H73.748Zm-4.023-3.3h3.149l-1.507-5.786h-.09Z" transform="translate(-48.345 -10.259)"/><path class="a" d="M86,26.486V10.56h3.631l6.147,8.287h.083V10.56h4.415V26.486H96.69L90.475,18.1h-.083v8.385Z" transform="translate(-54.149 -10.259)"/><path class="a" d="M115.366,26.666c-5.055,0-8.046-2.968-8.046-8.287s3.013-8.219,7.9-8.219c3.993,0,6.968,2.35,7.322,5.612h-4.6a2.659,2.659,0,0,0-2.7-1.929c-1.989,0-3.157,1.635-3.157,4.467s1.333,4.633,3.382,4.633a2.506,2.506,0,0,0,2.742-2.124v-.226h-2.4V17.513h6.931v2.1C122.748,23.969,120.006,26.666,115.366,26.666Z" transform="translate(-59.407 -10.16)"/><path class="a" d="M138.519,23.322H133.66l-.829,3.164H128.07l5.221-15.926h5.869l5.2,15.926h-5.04Zm-4.008-3.3h3.156l-1.507-5.786h-.083Z" transform="translate(-64.526 -10.259)"/><path class="a" d="M161.843,26.486V20.331h-5.6v6.155H151.56V10.56h4.678v6.027h5.6V10.56h4.686V26.486Z" transform="translate(-70.32 -10.259)"/><path class="a" d="M174.06,23.548l7.1-9.176v-.09h-7.029V10.56h12.483v2.923l-7.074,9.2v.083h7.338v3.722H174.068Z" transform="translate(-75.869 -10.259)"/></g><path class="a" d="M27.282,13.673A13.658,13.658,0,0,0,13.639,0h0A13.658,13.658,0,0,0,0,13.673H0A22.231,22.231,0,0,0,.26,17.854c.829,5.7,9.839,13.214,11.074,13.786.942.452,1.288-.045,1.409-.309a.61.61,0,0,0,.06-.218c0-.392,0-2.17,0-3.842h0l.105-3.767v-.957a5.861,5.861,0,0,1-5.1-5.793V10.125a5.846,5.846,0,1,1,11.684,0v6.629A5.853,5.853,0,0,1,14.4,22.548V23.5l.068,1.9v1.59c0,1.288.753,1.168.753,1.168C22.6,27.346,25.482,22.8,26.6,19.022a11.534,11.534,0,0,0,.67-4.038,10.871,10.871,0,0,0,.008-1.311Z" transform="translate(0.015)"/><path class="a" d="M21.246,18.54V11.918a4.648,4.648,0,1,0-9.3,0v6.629a4.648,4.648,0,0,0,9.3,0Zm-8.287-6.78a.61.61,0,0,1,.61-.61h2.35a.61.61,0,0,1,.61.61h0v.753a.6.6,0,0,1-.61.6H13.54a.6.6,0,0,1-.61-.6Zm3.669,6.991a.6.6,0,0,1-.61.6H13.449a.6.6,0,0,1-.61-.6h0V18a.61.61,0,0,1,.61-.61h2.539a.61.61,0,0,1,.61.61h0Zm0-3.2a.61.61,0,0,1-.61.61H13.637a.6.6,0,0,1-.6-.61h0V14.8a.6.6,0,0,1,.6-.6h2.35a.6.6,0,0,1,.61.6Z" transform="translate(-2.937 -1.793)"/></g></g></svg>