<svg xmlns="http://www.w3.org/2000/svg" width="182.966" height="40.448" viewBox="0 0 182.966 40.448"><defs><style>.a{fill:#fff;}</style></defs><g transform="translate(0.015)"><g transform="translate(-0.015)"><g transform="translate(41.876 9.728)"><path class="a" d="M49.341,24.82c.172,1.159,1.58,1.915,3.179,1.915,1.781,0,2.873-.718,2.873-1.7S54.645,23.69,52.52,23.3l-2.681-.479c-3.715-.642-5.745-2.777-5.745-5.946,0-4.1,3.5-6.7,8.33-6.7,5.391,0,8.407,2.461,8.436,6.4H55.392c0-1.264-1.293-2.011-2.873-2.011s-2.537.642-2.537,1.656.823,1.475,2.748,1.81l2.777.479c3.926.68,5.745,2.547,5.745,5.831,0,4.136-3.466,6.779-8.847,6.779s-8.618-2.279-8.685-6.32Z" transform="translate(-43.72 -10.16)"/><path class="a" d="M75.751,26.78H69.584L68.531,30.8H62.47L69.077,10.56h7.459L83.143,30.8H76.8Zm-5.113-4.194h4l-1.915-7.354H72.61Z" transform="translate(-44.517 -10.177)"/><path class="a" d="M86,30.8V10.56h4.615l7.813,10.533h.105V10.56h5.611V30.8H99.587l-7.9-10.657h-.105V30.8Z" transform="translate(-45.516 -10.177)"/><path class="a" d="M117.546,31.139c-6.425,0-10.226-3.773-10.226-10.533s3.83-10.446,10.044-10.446c5.075,0,8.857,2.987,9.307,7.133h-5.841a3.38,3.38,0,0,0-3.437-2.451c-2.528,0-4.012,2.078-4.012,5.678s1.695,5.889,4.3,5.889c1.915,0,3.313-1.072,3.485-2.7v-.287h-3.045V19.505h8.809v2.671C126.93,27.711,123.445,31.139,117.546,31.139Z" transform="translate(-46.422 -10.16)"/><path class="a" d="M141.351,26.78h-6.176L134.121,30.8H128.07l6.636-20.242h7.459L148.771,30.8h-6.406Zm-5.094-4.194h4.012l-1.915-7.354h-.105Z" transform="translate(-47.304 -10.177)"/><path class="a" d="M164.63,30.8V22.979h-7.124V30.8H151.56V10.56h5.946v7.66h7.124V10.56h5.956V30.8Z" transform="translate(-48.302 -10.177)"/><path class="a" d="M174.06,27.068l9.02-11.663V15.29h-8.934V10.56h15.866v3.715l-8.991,11.691v.105h9.326V30.8H174.07Z" transform="translate(-49.258 -10.177)"/></g><path class="a" d="M34.681,17.379A17.36,17.36,0,0,0,17.34,0h0A17.36,17.36,0,0,0,0,17.379H0a28.256,28.256,0,0,0,.335,5.314C1.388,29.932,12.84,39.488,14.41,40.216c1.2.575,1.637-.057,1.791-.393a.776.776,0,0,0,.077-.278c0-.5,0-2.758,0-4.883h0l.134-4.788V28.658A7.449,7.449,0,0,1,9.929,21.3V12.869a7.43,7.43,0,1,1,14.851,0V21.3a7.44,7.44,0,0,1-6.473,7.363v1.216l.086,2.413v2.02c0,1.637.958,1.484.958,1.484,9.374-1.034,13.041-6.808,14.468-11.615a14.66,14.66,0,0,0,.852-5.132,13.817,13.817,0,0,0,.01-1.666Z" transform="translate(0.015)"/><path class="a" d="M23.766,21.594V13.178a5.908,5.908,0,1,0-11.816,0V21.6a5.908,5.908,0,0,0,11.816,0ZM13.233,12.977a.776.776,0,0,1,.776-.776H17a.776.776,0,0,1,.776.776h0v.958A.766.766,0,0,1,17,14.7H13.97a.766.766,0,0,1-.776-.766ZM17.9,21.863a.766.766,0,0,1-.776.766H13.855a.766.766,0,0,1-.776-.766h0v-.958a.776.776,0,0,1,.776-.776h3.227a.776.776,0,0,1,.776.776h0Zm0-4.069a.776.776,0,0,1-.776.776H14.095a.766.766,0,0,1-.766-.776h0v-.958a.766.766,0,0,1,.766-.766h2.987a.766.766,0,0,1,.776.766Z" transform="translate(-0.494 -0.309)"/></g></g></svg>