<svg xmlns="http://www.w3.org/2000/svg" xmlns:xlink="http://www.w3.org/1999/xlink" width="1920" height="971.693" viewBox="0 0 1920 971.693"><defs><style>.a{opacity:0.839;}.a,.b{fill:url(#a);}</style><linearGradient id="a" x1="0.5" x2="0.5" y2="1" gradientUnits="objectBoundingBox"><stop offset="0" stop-color="#ff416c"/><stop offset="1" stop-color="#ff4b2b"/></linearGradient></defs><g transform="translate(0 1.24)"><path class="a" d="M0-.99C639.96.117,1280.4,18.257,1919.856-.99q.007,485.664,0,971.365c-87.444-155.554-167.6-226.771-249.709-266.612-81.52-39-162.449-52.508-243-61.285-161.135-17.533-320.657-9.911-479.309,17.179-79.328,14.133-158.478,31.356-237.485,58.154-79,26.217-157.888,62.077-236.671,99.881-78.791,38.084-157.4,77.125-236.089,105.921-39.36,14.419-78.75,26.321-118.306,34.508-19.778,4.094-39.6,7.262-59.474,9.354q-14.908,1.569-29.86,2.313-7.476.368-14.965.517T0,970.375Z" transform="translate(0 0.05)"/><path class="a" d="M0-.99C640.034.133,1280.352,18.152,1920-.99V970.376c-90.2-199.71-181.9-277.215-267.624-327.188-86.351-47.319-169.877-65.18-251.833-76.317-163.873-21.52-321.294-9.577-475.907,24.548-77.28,17.707-153.886,39.718-230.016,71.711-76.156,31.463-151.792,73.329-227.773,118.448-75.96,45.256-152.41,92.97-230.16,129.146-38.862,18.08-78.028,33.241-117.48,43.739a488.263,488.263,0,0,1-59.4,12.056q-14.9,2.039-29.854,3.032-7.476.488-14.965.7T0,970.376Z" transform="translate(0 0.05)"/><path class="b" d="M0-1.24H1920V969.238c-707.508-1128.081-1280,0-1920,0Z"/></g></svg>