<svg xmlns="http://www.w3.org/2000/svg" width="10.216" height="17.999" viewBox="0 0 10.216 17.999"><defs><style>.a{fill:#fff;}</style></defs><path class="a" d="M6.81,18H3.928a.874.874,0,0,1-.873-.873v-6.5H1.373A.874.874,0,0,1,.5,9.751V6.965a.874.874,0,0,1,.873-.873H3.055V4.7a4.75,4.75,0,0,1,1.256-3.4A4.524,4.524,0,0,1,7.646,0l2.2,0a.874.874,0,0,1,.872.873V3.463a.874.874,0,0,1-.873.873H8.363c-.451,0-.566.09-.591.118-.041.046-.089.176-.089.535v1.1H9.732a.887.887,0,0,1,.432.11.876.876,0,0,1,.449.764V9.751a.874.874,0,0,1-.873.873H7.684v6.5A.874.874,0,0,1,6.81,18Zm-2.7-1.055H6.628V10.152a.584.584,0,0,1,.583-.583H9.557V7.147H7.211a.584.584,0,0,1-.583-.583V4.99a1.8,1.8,0,0,1,.353-1.233,1.788,1.788,0,0,1,1.382-.475h1.3V1.058l-2.015,0A3.331,3.331,0,0,0,4.11,4.7V6.564a.584.584,0,0,1-.583.583H1.555V9.569H3.527a.584.584,0,0,1,.583.583ZM9.842,1.058h0Zm0,0" transform="translate(-0.5 0)"/></svg>