<svg xmlns="http://www.w3.org/2000/svg" width="10.097" height="9.347" viewBox="0 0 10.097 9.347"><defs><style>.a{fill:#ff9e24;}</style></defs><g transform="translate(0 -18)"><g transform="translate(0 18)"><g transform="translate(0 0)"><path class="a" d="M397.893,90.249h-.355v-.355a.394.394,0,1,0-.789,0v.355h-.355a.394.394,0,1,0,0,.789h.355v.355a.394.394,0,1,0,.789,0v-.355h.355a.394.394,0,1,0,0-.789Z" transform="translate(-388.191 -88.11)"/><path class="a" d="M6.22,23.54a2.534,2.534,0,1,0-3.092,0A4.674,4.674,0,0,0,0,27.953a.394.394,0,0,0,.394.394H8.953a.394.394,0,0,0,.394-.394A4.675,4.675,0,0,0,6.22,23.54Z" transform="translate(0 -19)"/></g></g></g></svg>