<svg xmlns="http://www.w3.org/2000/svg" width="46.418" height="44.134" viewBox="0 0 46.418 44.134"><defs><style>.a{fill:#c3c3c3;}</style></defs><g transform="translate(0 0)"><g transform="translate(0)"><path class="a" d="M23.21,0C10.392,0,0,9.88,0,22.066S10.392,44.134,23.21,44.134s23.21-9.881,23.21-22.067S36.028,0,23.21,0ZM6.3,30.378c0-6.893,6.368-6.892,7.781-8.694l.162-.822a6.525,6.525,0,0,1-3.387-5.96c0-3.553,2.431-6.434,5.429-6.434A5.576,5.576,0,0,1,21.4,12.751a7.863,7.863,0,0,0-5.225,7.684,8.35,8.35,0,0,0,2.775,6.344c-.277.135-.585.273-.85.391a11.942,11.942,0,0,0-4.71,3.209H6.3Zm16.977,5.533H13.225c0-6.893,6.368-6.891,7.781-8.694l.162-.822a6.525,6.525,0,0,1-3.387-5.96c0-3.553,2.431-6.434,5.429-6.434s5.429,2.881,5.429,6.434A6.542,6.542,0,0,1,25.3,26.373l.184.934c1.55,1.715,7.706,1.827,7.706,8.6H23.281Zm9.748-5.532h0a11.948,11.948,0,0,0-4.71-3.208c-.274-.122-.577-.258-.848-.39a8.369,8.369,0,0,0,2.775-6.345,7.863,7.863,0,0,0-5.223-7.683,5.575,5.575,0,0,1,5.112-4.284c3,0,5.429,2.881,5.429,6.434a6.542,6.542,0,0,1-3.335,5.938l.184.934c1.55,1.715,7.706,1.826,7.706,8.6H33.029Z" transform="translate(-0.001)"/></g></g></svg>