<svg xmlns="http://www.w3.org/2000/svg" xmlns:xlink="http://www.w3.org/1999/xlink" width="352.984" height="352.984" viewBox="0 0 352.984 352.984"><defs><style>.a{fill:#3d3e40;}.b{opacity:0.07;}.c{clip-path:url(#a);}</style><clipPath id="a"><circle class="a" cx="125.275" cy="125.275" r="125.275" transform="translate(-550.484 96.335)"/></clipPath></defs><g class="b" transform="matrix(0.643, 0.766, -0.766, 0.643, 619.574, 359.772)"><g class="c"><rect class="a" width="284.81" height="10.042" transform="translate(-567.614 118.955)"/><rect class="a" width="284.81" height="10.042" transform="translate(-567.614 72.883)"/><rect class="a" width="284.81" height="10.042" transform="translate(-567.614 95.919)"/><rect class="a" width="284.81" height="10.042" transform="translate(-567.614 141.991)"/><rect class="a" width="284.81" height="10.042" transform="translate(-567.614 165.027)"/><rect class="a" width="284.81" height="10.042" transform="translate(-567.614 188.063)"/><rect class="a" width="284.81" height="10.042" transform="translate(-567.614 211.1)"/><rect class="a" width="284.81" height="10.042" transform="translate(-567.614 234.136)"/><rect class="a" width="284.81" height="10.042" transform="translate(-567.614 257.172)"/><rect class="a" width="284.81" height="10.042" transform="translate(-567.614 280.208)"/><rect class="a" width="284.81" height="10.042" transform="translate(-567.614 303.244)"/><rect class="a" width="284.81" height="10.042" transform="translate(-567.614 326.28)"/><rect class="a" width="284.81" height="10.042" transform="translate(-567.614 349.316)"/></g></g></svg>