<svg xmlns="http://www.w3.org/2000/svg" width="303.597" height="303.69" viewBox="0 0 303.597 303.69"><defs><style>.a{opacity:0.21;}.b{fill:#3d3e40;}</style></defs><g class="a" transform="translate(-306.251 -350.314)"><path class="b" d="M468.237,355.9a3.287,3.287,0,1,1-.043-4.648A3.286,3.286,0,0,1,468.237,355.9Z" transform="translate(-6.708 0)"/><path class="b" d="M456.21,368.157a3.287,3.287,0,1,1-.043-4.648A3.286,3.286,0,0,1,456.21,368.157Z" transform="translate(-6.192 -0.526)"/><path class="b" d="M444.183,380.41a3.287,3.287,0,1,1-.043-4.648A3.287,3.287,0,0,1,444.183,380.41Z" transform="translate(-5.676 -1.051)"/><path class="b" d="M432.156,392.663a3.287,3.287,0,1,1-.043-4.648A3.286,3.286,0,0,1,432.156,392.663Z" transform="translate(-5.16 -1.577)"/><path class="b" d="M420.129,404.917a3.287,3.287,0,1,1-.044-4.648A3.287,3.287,0,0,1,420.129,404.917Z" transform="translate(-4.644 -2.103)"/><path class="b" d="M408.1,417.17a3.286,3.286,0,1,1-.043-4.648A3.286,3.286,0,0,1,408.1,417.17Z" transform="translate(-4.128 -2.628)"/><path class="b" d="M396.074,429.423a3.287,3.287,0,1,1-.043-4.648A3.286,3.286,0,0,1,396.074,429.423Z" transform="translate(-3.612 -3.154)"/><path class="b" d="M384.047,441.677a3.287,3.287,0,1,1-.043-4.648A3.286,3.286,0,0,1,384.047,441.677Z" transform="translate(-3.096 -3.68)"/><path class="b" d="M372.02,453.93a3.287,3.287,0,1,1-.043-4.648A3.287,3.287,0,0,1,372.02,453.93Z" transform="translate(-2.58 -4.205)"/><path class="b" d="M359.993,466.183a3.287,3.287,0,1,1-.044-4.649A3.288,3.288,0,0,1,359.993,466.183Z" transform="translate(-2.064 -4.731)"/><path class="b" d="M347.965,478.437a3.287,3.287,0,1,1-.043-4.648A3.286,3.286,0,0,1,347.965,478.437Z" transform="translate(-1.548 -5.257)"/><path class="b" d="M335.938,490.69a3.287,3.287,0,1,1-.043-4.648A3.286,3.286,0,0,1,335.938,490.69Z" transform="translate(-1.032 -5.782)"/><path class="b" d="M323.911,502.943a3.286,3.286,0,1,1-.043-4.648A3.286,3.286,0,0,1,323.911,502.943Z" transform="translate(-0.516 -6.308)"/><path class="b" d="M311.884,515.2a3.287,3.287,0,1,1-.043-4.648A3.287,3.287,0,0,1,311.884,515.2Z" transform="translate(0 -6.834)"/><path class="b" d="M480.082,367.53a3.287,3.287,0,1,1-.043-4.648A3.287,3.287,0,0,1,480.082,367.53Z" transform="translate(-7.216 -0.499)"/><path class="b" d="M468.055,379.783a3.287,3.287,0,1,1-.043-4.649A3.287,3.287,0,0,1,468.055,379.783Z" transform="translate(-6.7 -1.024)"/><path class="b" d="M456.028,392.036a3.287,3.287,0,1,1-.043-4.648A3.286,3.286,0,0,1,456.028,392.036Z" transform="translate(-6.184 -1.55)"/><path class="b" d="M444,404.29a3.287,3.287,0,1,1-.044-4.648A3.287,3.287,0,0,1,444,404.29Z" transform="translate(-5.668 -2.076)"/><path class="b" d="M431.973,416.543a3.286,3.286,0,1,1-.043-4.648A3.287,3.287,0,0,1,431.973,416.543Z" transform="translate(-5.152 -2.601)"/><path class="b" d="M419.946,428.8a3.287,3.287,0,1,1-.043-4.648A3.287,3.287,0,0,1,419.946,428.8Z" transform="translate(-4.636 -3.127)"/><path class="b" d="M407.919,441.049a3.287,3.287,0,1,1-.043-4.648A3.286,3.286,0,0,1,407.919,441.049Z" transform="translate(-4.12 -3.653)"/><path class="b" d="M395.892,453.3a3.287,3.287,0,1,1-.043-4.648A3.286,3.286,0,0,1,395.892,453.3Z" transform="translate(-3.604 -4.178)"/><path class="b" d="M383.865,465.556a3.287,3.287,0,1,1-.044-4.648A3.288,3.288,0,0,1,383.865,465.556Z" transform="translate(-3.088 -4.704)"/><path class="b" d="M371.837,477.809a3.287,3.287,0,1,1-.043-4.648A3.286,3.286,0,0,1,371.837,477.809Z" transform="translate(-2.572 -5.23)"/><path class="b" d="M359.81,490.063a3.287,3.287,0,1,1-.043-4.648A3.286,3.286,0,0,1,359.81,490.063Z" transform="translate(-2.056 -5.755)"/><path class="b" d="M347.783,502.316a3.287,3.287,0,1,1-.043-4.649A3.287,3.287,0,0,1,347.783,502.316Z" transform="translate(-1.54 -6.281)"/><path class="b" d="M335.756,514.57a3.287,3.287,0,1,1-.043-4.648A3.287,3.287,0,0,1,335.756,514.57Z" transform="translate(-1.024 -6.807)"/><path class="b" d="M323.729,526.823a3.287,3.287,0,1,1-.044-4.648A3.287,3.287,0,0,1,323.729,526.823Z" transform="translate(-0.508 -7.333)"/><path class="b" d="M491.927,379.156a3.287,3.287,0,1,1-.043-4.649A3.287,3.287,0,0,1,491.927,379.156Z" transform="translate(-7.724 -0.998)"/><path class="b" d="M479.9,391.409a3.287,3.287,0,1,1-.043-4.648A3.286,3.286,0,0,1,479.9,391.409Z" transform="translate(-7.208 -1.523)"/><path class="b" d="M467.873,403.663a3.287,3.287,0,1,1-.044-4.648A3.286,3.286,0,0,1,467.873,403.663Z" transform="translate(-6.692 -2.049)"/><path class="b" d="M455.845,415.915a3.286,3.286,0,1,1-.043-4.648A3.286,3.286,0,0,1,455.845,415.915Z" transform="translate(-6.176 -2.575)"/><path class="b" d="M443.818,428.169a3.287,3.287,0,1,1-.043-4.648A3.287,3.287,0,0,1,443.818,428.169Z" transform="translate(-5.66 -3.1)"/><path class="b" d="M431.791,440.422a3.287,3.287,0,1,1-.043-4.648A3.286,3.286,0,0,1,431.791,440.422Z" transform="translate(-5.144 -3.626)"/><path class="b" d="M419.764,452.676a3.287,3.287,0,1,1-.043-4.648A3.286,3.286,0,0,1,419.764,452.676Z" transform="translate(-4.628 -4.152)"/><path class="b" d="M407.737,464.929a3.287,3.287,0,1,1-.044-4.648A3.287,3.287,0,0,1,407.737,464.929Z" transform="translate(-4.112 -4.677)"/><path class="b" d="M395.709,477.183a3.287,3.287,0,1,1-.043-4.648A3.286,3.286,0,0,1,395.709,477.183Z" transform="translate(-3.596 -5.203)"/><path class="b" d="M383.682,489.436a3.287,3.287,0,1,1-.043-4.648A3.286,3.286,0,0,1,383.682,489.436Z" transform="translate(-3.08 -5.729)"/><path class="b" d="M371.655,501.689a3.287,3.287,0,1,1-.043-4.649A3.287,3.287,0,0,1,371.655,501.689Z" transform="translate(-2.564 -6.254)"/><path class="b" d="M359.628,513.943a3.287,3.287,0,1,1-.043-4.648A3.286,3.286,0,0,1,359.628,513.943Z" transform="translate(-2.048 -6.78)"/><path class="b" d="M347.6,526.2a3.287,3.287,0,1,1-.044-4.648A3.286,3.286,0,0,1,347.6,526.2Z" transform="translate(-1.532 -7.306)"/><path class="b" d="M335.573,538.448a3.286,3.286,0,1,1-.043-4.648A3.287,3.287,0,0,1,335.573,538.448Z" transform="translate(-1.016 -7.831)"/><path class="b" d="M503.772,390.783a3.287,3.287,0,1,1-.043-4.648A3.286,3.286,0,0,1,503.772,390.783Z" transform="translate(-8.232 -1.496)"/><path class="b" d="M491.745,403.036a3.287,3.287,0,1,1-.044-4.648A3.286,3.286,0,0,1,491.745,403.036Z" transform="translate(-7.716 -2.022)"/><path class="b" d="M479.717,415.289a3.286,3.286,0,1,1-.043-4.648A3.286,3.286,0,0,1,479.717,415.289Z" transform="translate(-7.2 -2.548)"/><path class="b" d="M467.69,427.542a3.287,3.287,0,1,1-.043-4.648A3.287,3.287,0,0,1,467.69,427.542Z" transform="translate(-6.684 -3.073)"/><path class="b" d="M455.663,439.8a3.287,3.287,0,1,1-.043-4.648A3.286,3.286,0,0,1,455.663,439.8Z" transform="translate(-6.168 -3.599)"/><path class="b" d="M443.636,452.049a3.287,3.287,0,1,1-.043-4.648A3.286,3.286,0,0,1,443.636,452.049Z" transform="translate(-5.652 -4.125)"/><path class="b" d="M431.609,464.3a3.287,3.287,0,1,1-.044-4.648A3.287,3.287,0,0,1,431.609,464.3Z" transform="translate(-5.136 -4.65)"/><path class="b" d="M419.581,476.555a3.287,3.287,0,1,1-.043-4.648A3.286,3.286,0,0,1,419.581,476.555Z" transform="translate(-4.62 -5.176)"/><path class="b" d="M407.554,488.809a3.287,3.287,0,1,1-.043-4.648A3.286,3.286,0,0,1,407.554,488.809Z" transform="translate(-4.104 -5.702)"/><path class="b" d="M395.527,501.062a3.287,3.287,0,1,1-.043-4.649A3.287,3.287,0,0,1,395.527,501.062Z" transform="translate(-3.588 -6.227)"/><path class="b" d="M383.5,513.315a3.287,3.287,0,1,1-.043-4.648A3.286,3.286,0,0,1,383.5,513.315Z" transform="translate(-3.072 -6.753)"/><path class="b" d="M371.473,525.568a3.287,3.287,0,1,1-.044-4.648A3.286,3.286,0,0,1,371.473,525.568Z" transform="translate(-2.556 -7.279)"/><path class="b" d="M359.445,537.822a3.286,3.286,0,1,1-.043-4.648A3.286,3.286,0,0,1,359.445,537.822Z" transform="translate(-2.04 -7.804)"/><path class="b" d="M347.418,550.076a3.287,3.287,0,1,1-.043-4.648A3.287,3.287,0,0,1,347.418,550.076Z" transform="translate(-1.524 -8.33)"/><path class="b" d="M515.617,402.409a3.287,3.287,0,1,1-.043-4.648A3.286,3.286,0,0,1,515.617,402.409Z" transform="translate(-8.74 -1.995)"/><path class="b" d="M503.59,414.661a3.287,3.287,0,1,1-.044-4.648A3.288,3.288,0,0,1,503.59,414.661Z" transform="translate(-8.224 -2.521)"/><path class="b" d="M491.562,426.915a3.287,3.287,0,1,1-.043-4.648A3.287,3.287,0,0,1,491.562,426.915Z" transform="translate(-7.708 -3.046)"/><path class="b" d="M479.535,439.169a3.287,3.287,0,1,1-.043-4.648A3.286,3.286,0,0,1,479.535,439.169Z" transform="translate(-7.192 -3.572)"/><path class="b" d="M467.508,451.422a3.287,3.287,0,1,1-.043-4.648A3.286,3.286,0,0,1,467.508,451.422Z" transform="translate(-6.676 -4.098)"/><path class="b" d="M455.481,463.675a3.287,3.287,0,1,1-.043-4.649A3.287,3.287,0,0,1,455.481,463.675Z" transform="translate(-6.16 -4.623)"/><path class="b" d="M443.454,475.928a3.287,3.287,0,1,1-.044-4.648A3.288,3.288,0,0,1,443.454,475.928Z" transform="translate(-5.644 -5.149)"/><path class="b" d="M431.426,488.182a3.287,3.287,0,1,1-.043-4.648A3.286,3.286,0,0,1,431.426,488.182Z" transform="translate(-5.128 -5.675)"/><path class="b" d="M419.4,500.435a3.286,3.286,0,1,1-.043-4.648A3.286,3.286,0,0,1,419.4,500.435Z" transform="translate(-4.612 -6.2)"/><path class="b" d="M407.372,512.689a3.287,3.287,0,1,1-.043-4.648A3.287,3.287,0,0,1,407.372,512.689Z" transform="translate(-4.096 -6.726)"/><path class="b" d="M395.345,524.942a3.287,3.287,0,1,1-.043-4.648A3.286,3.286,0,0,1,395.345,524.942Z" transform="translate(-3.581 -7.252)"/><path class="b" d="M383.318,537.195a3.287,3.287,0,1,1-.044-4.648A3.288,3.288,0,0,1,383.318,537.195Z" transform="translate(-3.065 -7.778)"/><path class="b" d="M371.29,549.448a3.287,3.287,0,1,1-.043-4.648A3.287,3.287,0,0,1,371.29,549.448Z" transform="translate(-2.549 -8.303)"/><path class="b" d="M359.263,561.7a3.287,3.287,0,1,1-.043-4.648A3.286,3.286,0,0,1,359.263,561.7Z" transform="translate(-2.033 -8.829)"/><path class="b" d="M527.462,414.035a3.287,3.287,0,1,1-.044-4.648A3.288,3.288,0,0,1,527.462,414.035Z" transform="translate(-9.248 -2.494)"/><path class="b" d="M515.434,426.288a3.287,3.287,0,1,1-.043-4.648A3.287,3.287,0,0,1,515.434,426.288Z" transform="translate(-8.732 -3.02)"/><path class="b" d="M503.407,438.541a3.287,3.287,0,1,1-.043-4.648A3.286,3.286,0,0,1,503.407,438.541Z" transform="translate(-8.216 -3.545)"/><path class="b" d="M491.38,450.795a3.287,3.287,0,1,1-.043-4.648A3.286,3.286,0,0,1,491.38,450.795Z" transform="translate(-7.7 -4.071)"/><path class="b" d="M479.353,463.048a3.287,3.287,0,1,1-.043-4.649A3.287,3.287,0,0,1,479.353,463.048Z" transform="translate(-7.184 -4.597)"/><path class="b" d="M467.326,475.3a3.287,3.287,0,1,1-.044-4.648A3.288,3.288,0,0,1,467.326,475.3Z" transform="translate(-6.668 -5.122)"/><path class="b" d="M455.3,487.555a3.287,3.287,0,1,1-.043-4.648A3.286,3.286,0,0,1,455.3,487.555Z" transform="translate(-6.153 -5.648)"/><path class="b" d="M443.271,499.808a3.286,3.286,0,1,1-.043-4.648A3.287,3.287,0,0,1,443.271,499.808Z" transform="translate(-5.637 -6.174)"/><path class="b" d="M431.244,512.061a3.287,3.287,0,1,1-.043-4.648A3.287,3.287,0,0,1,431.244,512.061Z" transform="translate(-5.121 -6.699)"/><path class="b" d="M419.217,524.315a3.287,3.287,0,1,1-.043-4.648A3.286,3.286,0,0,1,419.217,524.315Z" transform="translate(-4.605 -7.225)"/><path class="b" d="M407.19,536.568a3.287,3.287,0,1,1-.044-4.648A3.288,3.288,0,0,1,407.19,536.568Z" transform="translate(-4.089 -7.751)"/><path class="b" d="M395.162,548.822a3.287,3.287,0,1,1-.043-4.648A3.287,3.287,0,0,1,395.162,548.822Z" transform="translate(-3.573 -8.276)"/><path class="b" d="M383.135,561.075a3.287,3.287,0,1,1-.043-4.648A3.286,3.286,0,0,1,383.135,561.075Z" transform="translate(-3.057 -8.802)"/><path class="b" d="M371.108,573.328a3.287,3.287,0,1,1-.043-4.648A3.286,3.286,0,0,1,371.108,573.328Z" transform="translate(-2.541 -9.328)"/><path class="b" d="M539.306,425.661a3.287,3.287,0,1,1-.043-4.648A3.287,3.287,0,0,1,539.306,425.661Z" transform="translate(-9.757 -2.993)"/><path class="b" d="M527.279,437.915a3.287,3.287,0,1,1-.043-4.648A3.286,3.286,0,0,1,527.279,437.915Z" transform="translate(-9.241 -3.518)"/><path class="b" d="M515.252,450.168a3.287,3.287,0,1,1-.043-4.648A3.286,3.286,0,0,1,515.252,450.168Z" transform="translate(-8.725 -4.044)"/><path class="b" d="M503.225,462.421a3.287,3.287,0,1,1-.043-4.648A3.287,3.287,0,0,1,503.225,462.421Z" transform="translate(-8.209 -4.57)"/><path class="b" d="M491.2,474.674a3.287,3.287,0,1,1-.044-4.648A3.286,3.286,0,0,1,491.2,474.674Z" transform="translate(-7.693 -5.095)"/><path class="b" d="M479.17,486.928a3.287,3.287,0,1,1-.043-4.648A3.286,3.286,0,0,1,479.17,486.928Z" transform="translate(-7.177 -5.621)"/><path class="b" d="M467.143,499.181a3.287,3.287,0,1,1-.043-4.649A3.287,3.287,0,0,1,467.143,499.181Z" transform="translate(-6.661 -6.147)"/><path class="b" d="M455.116,511.434a3.287,3.287,0,1,1-.043-4.648A3.287,3.287,0,0,1,455.116,511.434Z" transform="translate(-6.145 -6.672)"/><path class="b" d="M443.089,523.688a3.287,3.287,0,1,1-.043-4.648A3.286,3.286,0,0,1,443.089,523.688Z" transform="translate(-5.629 -7.198)"/><path class="b" d="M431.062,535.94a3.287,3.287,0,1,1-.044-4.648A3.286,3.286,0,0,1,431.062,535.94Z" transform="translate(-5.113 -7.724)"/><path class="b" d="M419.034,548.195a3.287,3.287,0,1,1-.043-4.648A3.287,3.287,0,0,1,419.034,548.195Z" transform="translate(-4.597 -8.249)"/><path class="b" d="M407.007,560.448a3.287,3.287,0,1,1-.043-4.648A3.286,3.286,0,0,1,407.007,560.448Z" transform="translate(-4.081 -8.775)"/><path class="b" d="M394.98,572.7a3.287,3.287,0,1,1-.043-4.648A3.286,3.286,0,0,1,394.98,572.7Z" transform="translate(-3.565 -9.301)"/><path class="b" d="M382.953,584.955a3.287,3.287,0,1,1-.043-4.648A3.287,3.287,0,0,1,382.953,584.955Z" transform="translate(-3.049 -9.826)"/><path class="b" d="M551.151,437.287a3.287,3.287,0,1,1-.043-4.648A3.286,3.286,0,0,1,551.151,437.287Z" transform="translate(-10.265 -3.491)"/><path class="b" d="M539.124,449.541a3.287,3.287,0,1,1-.043-4.648A3.286,3.286,0,0,1,539.124,449.541Z" transform="translate(-9.749 -4.017)"/><path class="b" d="M527.1,461.794a3.287,3.287,0,1,1-.043-4.648A3.287,3.287,0,0,1,527.1,461.794Z" transform="translate(-9.233 -4.543)"/><path class="b" d="M515.07,474.048a3.287,3.287,0,1,1-.044-4.648A3.286,3.286,0,0,1,515.07,474.048Z" transform="translate(-8.717 -5.068)"/><path class="b" d="M503.042,486.3a3.287,3.287,0,1,1-.043-4.648A3.286,3.286,0,0,1,503.042,486.3Z" transform="translate(-8.201 -5.594)"/><path class="b" d="M491.015,498.554a3.287,3.287,0,1,1-.043-4.649A3.287,3.287,0,0,1,491.015,498.554Z" transform="translate(-7.685 -6.12)"/><path class="b" d="M478.988,510.807a3.287,3.287,0,1,1-.043-4.648A3.286,3.286,0,0,1,478.988,510.807Z" transform="translate(-7.169 -6.645)"/><path class="b" d="M466.961,523.06a3.287,3.287,0,1,1-.043-4.648A3.286,3.286,0,0,1,466.961,523.06Z" transform="translate(-6.653 -7.171)"/><path class="b" d="M454.934,535.314a3.287,3.287,0,1,1-.044-4.648A3.286,3.286,0,0,1,454.934,535.314Z" transform="translate(-6.137 -7.697)"/><ellipse class="b" cx="3.287" cy="3.287" rx="3.287" ry="3.287" transform="translate(431.623 533.787) rotate(-0.532)"/><path class="b" d="M430.879,559.82a3.287,3.287,0,1,1-.043-4.648A3.286,3.286,0,0,1,430.879,559.82Z" transform="translate(-5.105 -8.748)"/><path class="b" d="M418.852,572.073a3.287,3.287,0,1,1-.043-4.648A3.286,3.286,0,0,1,418.852,572.073Z" transform="translate(-4.589 -9.274)"/><path class="b" d="M406.825,584.328a3.287,3.287,0,1,1-.043-4.649A3.287,3.287,0,0,1,406.825,584.328Z" transform="translate(-4.073 -9.799)"/><path class="b" d="M394.8,596.58a3.287,3.287,0,1,1-.044-4.648A3.286,3.286,0,0,1,394.8,596.58Z" transform="translate(-3.557 -10.325)"/><path class="b" d="M563,448.914a3.287,3.287,0,1,1-.043-4.648A3.286,3.286,0,0,1,563,448.914Z" transform="translate(-10.773 -3.99)"/><path class="b" d="M550.969,461.167a3.287,3.287,0,1,1-.043-4.649A3.287,3.287,0,0,1,550.969,461.167Z" transform="translate(-10.257 -4.516)"/><path class="b" d="M538.942,473.42a3.287,3.287,0,1,1-.043-4.648A3.286,3.286,0,0,1,538.942,473.42Z" transform="translate(-9.741 -5.041)"/><path class="b" d="M526.915,485.674a3.287,3.287,0,1,1-.044-4.648A3.287,3.287,0,0,1,526.915,485.674Z" transform="translate(-9.225 -5.567)"/><path class="b" d="M514.887,497.927a3.286,3.286,0,1,1-.043-4.648A3.286,3.286,0,0,1,514.887,497.927Z" transform="translate(-8.709 -6.093)"/><path class="b" d="M502.86,510.18a3.287,3.287,0,1,1-.043-4.648A3.286,3.286,0,0,1,502.86,510.18Z" transform="translate(-8.193 -6.619)"/><path class="b" d="M490.833,522.434a3.287,3.287,0,1,1-.043-4.648A3.286,3.286,0,0,1,490.833,522.434Z" transform="translate(-7.677 -7.144)"/><path class="b" d="M478.806,534.687a3.287,3.287,0,1,1-.043-4.648A3.287,3.287,0,0,1,478.806,534.687Z" transform="translate(-7.161 -7.67)"/><path class="b" d="M466.779,546.94a3.287,3.287,0,1,1-.044-4.648A3.288,3.288,0,0,1,466.779,546.94Z" transform="translate(-6.645 -8.196)"/><path class="b" d="M454.751,559.193a3.287,3.287,0,1,1-.043-4.648A3.286,3.286,0,0,1,454.751,559.193Z" transform="translate(-6.129 -8.721)"/><path class="b" d="M442.724,571.447a3.287,3.287,0,1,1-.043-4.648A3.286,3.286,0,0,1,442.724,571.447Z" transform="translate(-5.613 -9.247)"/><path class="b" d="M430.7,583.7a3.287,3.287,0,1,1-.043-4.649A3.287,3.287,0,0,1,430.7,583.7Z" transform="translate(-5.097 -9.773)"/><path class="b" d="M418.67,595.953a3.287,3.287,0,1,1-.043-4.648A3.286,3.286,0,0,1,418.67,595.953Z" transform="translate(-4.581 -10.298)"/><path class="b" d="M406.643,608.207a3.287,3.287,0,1,1-.044-4.648A3.287,3.287,0,0,1,406.643,608.207Z" transform="translate(-4.065 -10.824)"/><path class="b" d="M574.841,460.54a3.287,3.287,0,1,1-.043-4.649A3.287,3.287,0,0,1,574.841,460.54Z" transform="translate(-11.281 -4.489)"/><path class="b" d="M562.814,472.794a3.287,3.287,0,1,1-.043-4.648A3.286,3.286,0,0,1,562.814,472.794Z" transform="translate(-10.765 -5.015)"/><path class="b" d="M550.786,485.047a3.287,3.287,0,1,1-.044-4.648A3.287,3.287,0,0,1,550.786,485.047Z" transform="translate(-10.249 -5.54)"/><path class="b" d="M538.759,497.3a3.286,3.286,0,1,1-.043-4.648A3.286,3.286,0,0,1,538.759,497.3Z" transform="translate(-9.733 -6.066)"/><path class="b" d="M526.732,509.553a3.287,3.287,0,1,1-.043-4.648A3.287,3.287,0,0,1,526.732,509.553Z" transform="translate(-9.217 -6.592)"/><path class="b" d="M514.7,521.807a3.287,3.287,0,1,1-.043-4.648A3.286,3.286,0,0,1,514.7,521.807Z" transform="translate(-8.701 -7.117)"/><path class="b" d="M502.678,534.06a3.287,3.287,0,1,1-.043-4.648A3.286,3.286,0,0,1,502.678,534.06Z" transform="translate(-8.185 -7.643)"/><path class="b" d="M490.651,546.314a3.287,3.287,0,1,1-.044-4.648A3.289,3.289,0,0,1,490.651,546.314Z" transform="translate(-7.669 -8.169)"/><path class="b" d="M478.623,558.566a3.287,3.287,0,1,1-.043-4.648A3.286,3.286,0,0,1,478.623,558.566Z" transform="translate(-7.153 -8.694)"/><path class="b" d="M466.6,570.82a3.287,3.287,0,1,1-.043-4.648A3.286,3.286,0,0,1,466.6,570.82Z" transform="translate(-6.637 -9.22)"/><path class="b" d="M454.569,583.073a3.287,3.287,0,1,1-.043-4.648A3.287,3.287,0,0,1,454.569,583.073Z" transform="translate(-6.121 -9.746)"/><path class="b" d="M442.542,595.327a3.287,3.287,0,1,1-.043-4.648A3.287,3.287,0,0,1,442.542,595.327Z" transform="translate(-5.605 -10.271)"/><path class="b" d="M430.515,607.58a3.287,3.287,0,1,1-.044-4.648A3.286,3.286,0,0,1,430.515,607.58Z" transform="translate(-5.089 -10.797)"/><path class="b" d="M418.487,619.833a3.286,3.286,0,1,1-.043-4.648A3.287,3.287,0,0,1,418.487,619.833Z" transform="translate(-4.573 -11.323)"/><path class="b" d="M586.686,472.167a3.287,3.287,0,1,1-.043-4.648A3.287,3.287,0,0,1,586.686,472.167Z" transform="translate(-11.789 -4.988)"/><path class="b" d="M574.659,484.42a3.287,3.287,0,1,1-.044-4.648A3.286,3.286,0,0,1,574.659,484.42Z" transform="translate(-11.273 -5.513)"/><path class="b" d="M562.631,496.673a3.287,3.287,0,1,1-.043-4.649A3.287,3.287,0,0,1,562.631,496.673Z" transform="translate(-10.757 -6.039)"/><path class="b" d="M550.6,508.926a3.287,3.287,0,1,1-.043-4.648A3.287,3.287,0,0,1,550.6,508.926Z" transform="translate(-10.241 -6.565)"/><path class="b" d="M538.577,521.18a3.287,3.287,0,1,1-.043-4.648A3.286,3.286,0,0,1,538.577,521.18Z" transform="translate(-9.725 -7.09)"/><path class="b" d="M526.55,533.432a3.287,3.287,0,1,1-.043-4.648A3.286,3.286,0,0,1,526.55,533.432Z" transform="translate(-9.209 -7.616)"/><path class="b" d="M514.523,545.686a3.287,3.287,0,1,1-.044-4.648A3.287,3.287,0,0,1,514.523,545.686Z" transform="translate(-8.693 -8.142)"/><path class="b" d="M502.495,557.94a3.287,3.287,0,1,1-.043-4.648A3.286,3.286,0,0,1,502.495,557.94Z" transform="translate(-8.177 -8.667)"/><path class="b" d="M490.468,570.193a3.287,3.287,0,1,1-.043-4.648A3.286,3.286,0,0,1,490.468,570.193Z" transform="translate(-7.661 -9.193)"/><path class="b" d="M478.441,582.447a3.287,3.287,0,1,1-.043-4.649A3.287,3.287,0,0,1,478.441,582.447Z" transform="translate(-7.145 -9.719)"/><path class="b" d="M466.414,594.7a3.287,3.287,0,1,1-.043-4.648A3.286,3.286,0,0,1,466.414,594.7Z" transform="translate(-6.629 -10.244)"/><path class="b" d="M454.387,606.953a3.287,3.287,0,1,1-.044-4.648A3.286,3.286,0,0,1,454.387,606.953Z" transform="translate(-6.113 -10.77)"/><path class="b" d="M442.359,619.206a3.286,3.286,0,1,1-.043-4.648A3.286,3.286,0,0,1,442.359,619.206Z" transform="translate(-5.597 -11.296)"/><path class="b" d="M430.332,631.46a3.287,3.287,0,1,1-.043-4.648A3.287,3.287,0,0,1,430.332,631.46Z" transform="translate(-5.081 -11.821)"/><path class="b" d="M598.531,483.793a3.287,3.287,0,1,1-.044-4.648A3.286,3.286,0,0,1,598.531,483.793Z" transform="translate(-12.297 -5.487)"/><circle class="b" cx="3.287" cy="3.287" r="3.287" transform="translate(569.059 484.476) rotate(-0.532)"/><path class="b" d="M574.476,508.3a3.287,3.287,0,1,1-.043-4.648A3.286,3.286,0,0,1,574.476,508.3Z" transform="translate(-11.265 -6.538)"/><path class="b" d="M562.449,520.552a3.287,3.287,0,1,1-.043-4.648A3.286,3.286,0,0,1,562.449,520.552Z" transform="translate(-10.749 -7.063)"/><path class="b" d="M550.422,532.806a3.286,3.286,0,1,1-.043-4.648A3.287,3.287,0,0,1,550.422,532.806Z" transform="translate(-10.233 -7.589)"/><path class="b" d="M538.394,545.059a3.287,3.287,0,1,1-.044-4.648A3.287,3.287,0,0,1,538.394,545.059Z" transform="translate(-9.717 -8.115)"/><path class="b" d="M526.367,557.313a3.287,3.287,0,1,1-.043-4.648A3.286,3.286,0,0,1,526.367,557.313Z" transform="translate(-9.201 -8.64)"/><path class="b" d="M514.34,569.565a3.287,3.287,0,1,1-.043-4.648A3.286,3.286,0,0,1,514.34,569.565Z" transform="translate(-8.685 -9.166)"/><path class="b" d="M502.313,581.818a3.286,3.286,0,1,1-.043-4.648A3.286,3.286,0,0,1,502.313,581.818Z" transform="translate(-8.169 -9.692)"/><path class="b" d="M490.286,594.073a3.287,3.287,0,1,1-.043-4.648A3.286,3.286,0,0,1,490.286,594.073Z" transform="translate(-7.654 -10.218)"/><path class="b" d="M478.259,606.326a3.287,3.287,0,1,1-.044-4.648A3.286,3.286,0,0,1,478.259,606.326Z" transform="translate(-7.138 -10.743)"/><path class="b" d="M466.232,618.578a3.287,3.287,0,1,1-.044-4.648A3.288,3.288,0,0,1,466.232,618.578Z" transform="translate(-6.622 -11.269)"/><path class="b" d="M454.2,630.832a3.287,3.287,0,1,1-.043-4.648A3.287,3.287,0,0,1,454.2,630.832Z" transform="translate(-6.106 -11.795)"/><path class="b" d="M442.177,643.086a3.287,3.287,0,1,1-.043-4.648A3.286,3.286,0,0,1,442.177,643.086Z" transform="translate(-5.59 -12.32)"/><path class="b" d="M610.376,495.419a3.287,3.287,0,1,1-.044-4.649A3.288,3.288,0,0,1,610.376,495.419Z" transform="translate(-12.805 -5.985)"/><path class="b" d="M598.348,507.672a3.287,3.287,0,1,1-.043-4.648A3.286,3.286,0,0,1,598.348,507.672Z" transform="translate(-12.289 -6.511)"/><path class="b" d="M586.321,519.926a3.287,3.287,0,1,1-.043-4.648A3.286,3.286,0,0,1,586.321,519.926Z" transform="translate(-11.773 -7.037)"/><path class="b" d="M574.294,532.179a3.286,3.286,0,1,1-.043-4.648A3.287,3.287,0,0,1,574.294,532.179Z" transform="translate(-11.258 -7.562)"/><path class="b" d="M562.266,544.432a3.287,3.287,0,1,1-.043-4.648A3.287,3.287,0,0,1,562.266,544.432Z" transform="translate(-10.741 -8.088)"/><path class="b" d="M550.24,556.685a3.287,3.287,0,1,1-.044-4.648A3.288,3.288,0,0,1,550.24,556.685Z" transform="translate(-10.226 -8.614)"/><path class="b" d="M538.212,568.939a3.287,3.287,0,1,1-.043-4.648A3.286,3.286,0,0,1,538.212,568.939Z" transform="translate(-9.71 -9.139)"/><path class="b" d="M526.185,581.192a3.286,3.286,0,1,1-.043-4.648A3.287,3.287,0,0,1,526.185,581.192Z" transform="translate(-9.194 -9.665)"/><path class="b" d="M514.158,593.445a3.287,3.287,0,1,1-.043-4.648A3.287,3.287,0,0,1,514.158,593.445Z" transform="translate(-8.678 -10.191)"/><path class="b" d="M502.131,605.7a3.287,3.287,0,1,1-.043-4.648A3.286,3.286,0,0,1,502.131,605.7Z" transform="translate(-8.162 -10.716)"/><path class="b" d="M490.1,617.952a3.287,3.287,0,1,1-.044-4.648A3.288,3.288,0,0,1,490.1,617.952Z" transform="translate(-7.646 -11.242)"/><path class="b" d="M478.076,630.206a3.287,3.287,0,1,1-.043-4.648A3.287,3.287,0,0,1,478.076,630.206Z" transform="translate(-7.13 -11.768)"/><path class="b" d="M466.049,642.458a3.287,3.287,0,1,1-.043-4.648A3.286,3.286,0,0,1,466.049,642.458Z" transform="translate(-6.614 -12.293)"/><path class="b" d="M454.022,654.711a3.287,3.287,0,1,1-.043-4.648A3.286,3.286,0,0,1,454.022,654.711Z" transform="translate(-6.098 -12.819)"/><path class="b" d="M622.22,507.045a3.287,3.287,0,1,1-.043-4.648A3.286,3.286,0,0,1,622.22,507.045Z" transform="translate(-13.314 -6.484)"/><path class="b" d="M610.193,519.3a3.287,3.287,0,1,1-.043-4.648A3.286,3.286,0,0,1,610.193,519.3Z" transform="translate(-12.798 -7.01)"/><path class="b" d="M598.166,531.552a3.286,3.286,0,1,1-.043-4.648A3.286,3.286,0,0,1,598.166,531.552Z" transform="translate(-12.282 -7.535)"/><path class="b" d="M586.139,543.806a3.287,3.287,0,1,1-.043-4.648A3.287,3.287,0,0,1,586.139,543.806Z" transform="translate(-11.766 -8.061)"/><path class="b" d="M574.112,556.059a3.287,3.287,0,1,1-.044-4.648A3.287,3.287,0,0,1,574.112,556.059Z" transform="translate(-11.25 -8.587)"/><path class="b" d="M562.084,568.312a3.287,3.287,0,1,1-.043-4.648A3.287,3.287,0,0,1,562.084,568.312Z" transform="translate(-10.734 -9.112)"/><path class="b" d="M550.057,580.565a3.287,3.287,0,1,1-.043-4.649A3.287,3.287,0,0,1,550.057,580.565Z" transform="translate(-10.218 -9.638)"/><path class="b" d="M538.03,592.818a3.287,3.287,0,1,1-.043-4.648A3.287,3.287,0,0,1,538.03,592.818Z" transform="translate(-9.702 -10.164)"/><path class="b" d="M526,605.072a3.287,3.287,0,1,1-.043-4.648A3.286,3.286,0,0,1,526,605.072Z" transform="translate(-9.186 -10.689)"/><path class="b" d="M513.976,617.325a3.287,3.287,0,1,1-.044-4.648A3.286,3.286,0,0,1,513.976,617.325Z" transform="translate(-8.67 -11.215)"/><path class="b" d="M501.948,629.578a3.287,3.287,0,1,1-.043-4.648A3.287,3.287,0,0,1,501.948,629.578Z" transform="translate(-8.154 -11.741)"/><path class="b" d="M489.921,641.831a3.287,3.287,0,1,1-.043-4.648A3.286,3.286,0,0,1,489.921,641.831Z" transform="translate(-7.638 -12.266)"/><path class="b" d="M477.894,654.085a3.287,3.287,0,1,1-.043-4.648A3.286,3.286,0,0,1,477.894,654.085Z" transform="translate(-7.122 -12.792)"/><path class="b" d="M465.867,666.339a3.287,3.287,0,1,1-.043-4.648A3.287,3.287,0,0,1,465.867,666.339Z" transform="translate(-6.606 -13.318)"/></g></svg>