<svg xmlns="http://www.w3.org/2000/svg" width="17.97" height="17.97" viewBox="0 0 17.97 17.97"><defs><style>.a{fill:#fff;}</style></defs><g transform="translate(0.001)"><path class="a" d="M13.1,0H4.863A4.87,4.87,0,0,0,0,4.864v8.242A4.87,4.87,0,0,0,4.863,17.97H13.1a4.87,4.87,0,0,0,4.864-4.864V4.864A4.87,4.87,0,0,0,13.1,0Zm3.811,13.106A3.815,3.815,0,0,1,13.1,16.917H4.863a3.815,3.815,0,0,1-3.811-3.811V4.864A3.815,3.815,0,0,1,4.863,1.053H13.1a3.815,3.815,0,0,1,3.811,3.811Zm0,0"/><path class="a" d="M120.918,116a4.914,4.914,0,1,0,4.914,4.914A4.919,4.919,0,0,0,120.918,116Zm0,8.774a3.86,3.86,0,1,1,3.86-3.86A3.864,3.864,0,0,1,120.918,124.778Zm0,0" transform="translate(-111.933 -111.932)"/><path class="a" d="M359.429,66.285a1.452,1.452,0,1,0,1.452,1.452A1.454,1.454,0,0,0,359.429,66.285Zm0,1.85a.4.4,0,1,1,.4-.4A.4.4,0,0,1,359.429,68.136Zm0,0" transform="translate(-345.413 -63.959)"/></g></svg>