<svg xmlns="http://www.w3.org/2000/svg" width="18.355" height="17.54" viewBox="0 0 18.355 17.54"><defs><style>.a{fill:#fff;}</style></defs><g transform="translate(0 -10.629)"><path class="a" d="M18.355,21.384v6.785H14.42V21.835c0-1.592-.567-2.675-1.992-2.675A2.155,2.155,0,0,0,10.41,20.6a2.721,2.721,0,0,0-.135.961v6.609H6.343s.053-10.723,0-11.833h3.933v1.677c-.005.014-.017.025-.022.041h.022v-.041a3.908,3.908,0,0,1,3.546-1.955C16.417,16.057,18.355,17.748,18.355,21.384ZM2.226,10.629a2.052,2.052,0,1,0-.05,4.092H2.2a2.052,2.052,0,1,0,.027-4.092ZM.235,28.168H4.168V16.334H.235Z"/></g></svg>