<svg xmlns="http://www.w3.org/2000/svg" width="31.463" height="31.879" viewBox="0 0 31.463 31.879"><defs><style>.a{fill:#c9c9c9;}</style></defs><g transform="translate(0)"><path class="a" d="M8.146,26.685A.686.686,0,0,1,7.452,26V20.72a.2.2,0,0,0-.2-.2H4.913A4.918,4.918,0,0,1,0,15.606V4.913A4.918,4.918,0,0,1,4.913,0h16.3A4.918,4.918,0,0,1,26.13,4.913V15.606a4.918,4.918,0,0,1-4.913,4.913H14.324a.2.2,0,0,0-.145.062L8.644,26.467A.678.678,0,0,1,8.146,26.685ZM9.8,5.452A3.2,3.2,0,0,0,7.543,10.9l5.212,5.209a.427.427,0,0,0,.3.125.417.417,0,0,0,.3-.125l5.222-5.222a3.193,3.193,0,0,0-4.517-4.515l-.705.7a.431.431,0,0,1-.607,0l-.693-.693A3.176,3.176,0,0,0,9.8,5.452Z" transform="translate(6.003) rotate(13)"/></g></svg>