<svg xmlns="http://www.w3.org/2000/svg" xmlns:xlink="http://www.w3.org/1999/xlink" width="17.689" height="31.656" viewBox="0 0 17.689 31.656"><defs><style>.a{stroke:#f5405d;stroke-width:0.5px;fill:url(#a);}</style><linearGradient id="a" x1="0.5" x2="0.5" y2="1" gradientUnits="objectBoundingBox"><stop offset="0" stop-color="#ff416c"/><stop offset="1" stop-color="#ff4b2b"/></linearGradient></defs><g transform="translate(-12.75 0.25)"><path class="a" d="M29.652,28a.537.537,0,0,0-.537.537V31.76a7.52,7.52,0,1,1-15.041,0V28.537a.537.537,0,1,0-1.074,0V31.76a8.6,8.6,0,0,0,8.057,8.567v2.713H18.372a.537.537,0,1,0,0,1.074h6.446a.537.537,0,1,0,0-1.074H22.132V40.327a8.6,8.6,0,0,0,8.057-8.567V28.537A.537.537,0,0,0,29.652,28Z" transform="translate(0 -12.959)"/><path class="a" d="M23.909,24.71A5.916,5.916,0,0,0,29.818,18.8V5.909A5.909,5.909,0,1,0,18,5.909V18.8A5.916,5.916,0,0,0,23.909,24.71Zm-4.834-18.8a4.834,4.834,0,1,1,9.669,0V18.8a4.834,4.834,0,1,1-9.669,0Z" transform="translate(-2.314)"/></g></svg>