<svg xmlns="http://www.w3.org/2000/svg" width="29.796" height="29.796" viewBox="0 0 29.796 29.796"><defs><style>.a{fill:#c9c9c9;}</style></defs><g transform="matrix(0.914, 0.407, -0.407, 0.914, 9.179, 0)"><path class="a" d="M17.48,22.568H5.089A5.094,5.094,0,0,1,0,17.48V5.089A5.094,5.094,0,0,1,5.089,0H17.48a5.094,5.094,0,0,1,5.089,5.089V17.48A5.094,5.094,0,0,1,17.48,22.568ZM6.06,14.448a2.988,2.988,0,0,0-3.134,2.807,2.987,2.987,0,0,0,3.134,2.8,2.987,2.987,0,0,0,3.134-2.806V8.725L17.553,7.64v5.019a3.271,3.271,0,0,0-2.268-.9,2.97,2.97,0,0,0-3.1,2.807,2.969,2.969,0,0,0,3.1,2.806,2.97,2.97,0,0,0,3.1-2.806V4.119a.418.418,0,0,0-.417-.418.387.387,0,0,0-.054,0L8.723,4.9a.419.419,0,0,0-.364.415v10.04A3.324,3.324,0,0,0,6.06,14.448Zm0,4.776a2.156,2.156,0,0,1-2.3-1.97,2.156,2.156,0,0,1,2.3-1.971,2.156,2.156,0,0,1,2.3,1.971A2.156,2.156,0,0,1,6.06,19.225Zm9.225-2.687a2.138,2.138,0,0,1-2.269-1.97A2.138,2.138,0,0,1,15.284,12.6a2.138,2.138,0,0,1,2.268,1.971A2.137,2.137,0,0,1,15.284,16.538ZM9.194,7.883h0V5.68L17.553,4.6V6.8L9.194,7.883Z" transform="translate(0 0)"/></g></svg>