<svg xmlns="http://www.w3.org/2000/svg" width="61.226" height="61.226" viewBox="0 0 61.226 61.226"><defs><style>.a{fill:#c9c9c9;}</style></defs><g transform="matrix(0.914, 0.407, -0.407, 0.914, 18.862, 0)"><path class="a" d="M35.917,46.373H10.457A10.468,10.468,0,0,1,0,35.917V10.456A10.468,10.468,0,0,1,10.457,0h25.46A10.468,10.468,0,0,1,46.373,10.456V35.917A10.468,10.468,0,0,1,35.917,46.373ZM12.452,29.688c-3.551,0-6.44,2.588-6.44,5.768S8.9,41.22,12.452,41.22s6.44-2.587,6.44-5.765V17.929L36.067,15.7V26.011a6.721,6.721,0,0,0-4.661-1.844c-3.517,0-6.378,2.587-6.378,5.767S27.889,35.7,31.406,35.7s6.379-2.586,6.379-5.765V8.464a.859.859,0,0,0-.857-.858.794.794,0,0,0-.111.008L17.923,10.066a.861.861,0,0,0-.748.852v20.63A6.829,6.829,0,0,0,12.452,29.688Zm0,9.814c-2.6,0-4.723-1.816-4.723-4.048s2.119-4.049,4.723-4.049,4.724,1.817,4.724,4.049S15.057,39.5,12.452,39.5Zm18.955-5.521c-2.571,0-4.663-1.816-4.663-4.047s2.092-4.049,4.663-4.049,4.661,1.817,4.661,4.049S33.976,33.982,31.406,33.982ZM18.892,16.2h0V11.672L36.067,9.442v4.524L18.892,16.2Z" transform="translate(0 0)"/></g></svg>