<svg xmlns="http://www.w3.org/2000/svg" width="42.23" height="42.23" viewBox="0 0 42.23 42.23"><defs><style>.a{fill:#c3c3c3;}</style></defs><g transform="translate(0 0)"><path class="a" d="M21.115,42.23A21.121,21.121,0,0,1,12.9,1.66,21.12,21.12,0,0,1,29.334,40.571,20.984,20.984,0,0,1,21.115,42.23ZM17.682,11.885a.578.578,0,0,0-.577.577V29.769a.574.574,0,0,0,.307.51.564.564,0,0,0,.27.067.574.574,0,0,0,.324-.1L30.7,21.593a.579.579,0,0,0,0-.955L18.007,11.984A.579.579,0,0,0,17.682,11.885Z" transform="translate(0 0)"/></g></svg>