<svg xmlns="http://www.w3.org/2000/svg" width="26.208" height="26.208" viewBox="0 0 26.208 26.208"><defs><style>.a{fill:#ff4b2b;}</style></defs><g transform="translate(-0.001)"><g transform="translate(0.001 4.709)"><path class="a" d="M24.674,101.982a2.306,2.306,0,0,0-2.3-2.3H18.949a18.675,18.675,0,0,0,.84-3.538A3.6,3.6,0,0,0,16.228,92a.768.768,0,0,0-.768.768c0,1.855-1.066,4.655-2.31,5.279a33.61,33.61,0,0,1-4.7,1.632H.769a.768.768,0,0,0-.768.768V111.2a.768.768,0,0,0,.768.768h2.3v.768a.768.768,0,0,0,.768.768H7.014a2.306,2.306,0,0,0,2.1-1.37l5.387,1.347a.769.769,0,0,0,.186.023H19.3a2.3,2.3,0,0,0,2.142-3.152,2.3,2.3,0,0,0,1.536-3.071,2.3,2.3,0,0,0,1.11-3.758A2.294,2.294,0,0,0,24.674,101.982Zm-21.6,8.446H1.537v-9.214H3.072Zm4.709.768a.769.769,0,0,1-.768.768H4.608v-10.75H7.782Zm9.982-6.91H22.37a.768.768,0,0,1,0,1.536H17.763a.768.768,0,1,0,0,1.536h3.071a.768.768,0,0,1,0,1.536H17.763a.768.768,0,0,0,0,1.536H19.3a.768.768,0,1,1,0,1.536H14.787L9.317,110.6v-9.568a31.471,31.471,0,0,0,4.521-1.609c1.763-.884,2.843-3.68,3.1-5.758a2.071,2.071,0,0,1,1.334,2.253,12.413,12.413,0,0,1-1.194,4.189.768.768,0,0,0,.687,1.111H22.37a.768.768,0,0,1,0,1.536H17.763a.768.768,0,1,0,0,1.536Z" transform="translate(-0.001 -92)"/></g><g transform="translate(16.228)"><path class="a" d="M317.768,0A.768.768,0,0,0,317,.768V2.406a.768.768,0,1,0,1.536,0V.768A.768.768,0,0,0,317.768,0Z" transform="translate(-317)"/></g><g transform="translate(10.255 2.576)"><path class="a" d="M202.724,51.638l-1.086-1.086a.768.768,0,1,0-1.086,1.086l1.086,1.086a.768.768,0,0,0,1.086-1.086Z" transform="translate(-200.327 -50.328)"/></g><g transform="translate(7.782 8.548)"><path class="a" d="M154.3,167h-1.536a.768.768,0,1,0,0,1.536H154.3a.768.768,0,1,0,0-1.536Z" transform="translate(-151.999 -167)"/></g><g transform="translate(23.138 8.548)"><path class="a" d="M454.3,167h-1.536a.768.768,0,0,0,0,1.536H454.3a.768.768,0,0,0,0-1.536Z" transform="translate(-452 -167)"/></g><g transform="translate(21.114 2.576)"><path class="a" d="M414.856,50.552a.768.768,0,0,0-1.086,0l-1.086,1.086a.768.768,0,0,0,1.086,1.086l1.086-1.086A.768.768,0,0,0,414.856,50.552Z" transform="translate(-412.459 -50.328)"/></g></g></svg>