<svg xmlns="http://www.w3.org/2000/svg" width="52.179" height="52.179" viewBox="0 0 52.179 52.179"><defs><style>.a{fill:#c3c3c3;}</style></defs><g transform="translate(0 0)"><path class="a" d="M26.09,0A26.089,26.089,0,1,0,52.18,26.089,26.089,26.089,0,0,0,26.09,0Zm-2.9,26.089a4.577,4.577,0,0,1-.273,1.548l7.282,3.5a4.674,4.674,0,1,1-1.144,2.376L21.3,29.788a4.583,4.583,0,1,1,0-7.4l7.752-3.727A4.588,4.588,0,1,1,30.2,21.04l-7.282,3.5A4.57,4.57,0,0,1,23.188,26.089Z" transform="translate(-0.001)"/></g></svg>