<svg xmlns="http://www.w3.org/2000/svg" width="22.002" height="17.97" viewBox="0 0 22.002 17.97"><defs><style>.a{fill:#fff;stroke:#fff;stroke-width:0.2px;}</style></defs><g transform="translate(0.101 -48.237)"><g transform="translate(0.001 48.348)"><path class="a" d="M21.672,49.347a.486.486,0,0,0-.444-.111l-.74.259a5.069,5.069,0,0,0,.925-1.591.382.382,0,0,0-.074-.444.394.394,0,0,0-.444-.074,27.1,27.1,0,0,1-2.664,1.036c0,.037-.037,0-.074,0a7.7,7.7,0,0,0-3.071-1.073,4.89,4.89,0,0,0-4.735,4.957v.148C6.5,51.714,4.4,50.6,2.1,48.2l-.37-.37-.222.444a5.005,5.005,0,0,0,1.073,6.067,3.021,3.021,0,0,1-1.517-.666.443.443,0,0,0-.518-.037.455.455,0,0,0-.185.481,7.26,7.26,0,0,0,3.219,4,2.967,2.967,0,0,1-1.776-.444.521.521,0,0,0-.518.037.4.4,0,0,0-.148.481,4.46,4.46,0,0,0,4.032,3.145A9.077,9.077,0,0,1,.511,62.517a.527.527,0,0,0-.481.333.514.514,0,0,0,.148.555c1.332,1.073,4.291,1.7,7.954,1.7,6.511,0,11.838-5.808,11.838-12.948v-.111a3.665,3.665,0,0,0,1.813-2.257A.486.486,0,0,0,21.672,49.347Zm-2.22,2.109-.222.074v.629c0,6.733-4.994,12.208-11.1,12.208A16.485,16.485,0,0,1,1.288,63.22a8.9,8.9,0,0,0,5.179-1.887l.925-.666H6.282c-2.109,0-3.4-.592-4.143-2a5.823,5.823,0,0,0,2.146.185,7.126,7.126,0,0,1,.888-.037l.111-.74A6.683,6.683,0,0,1,1.4,54.711a5.577,5.577,0,0,0,2.294.407H4.839l-.925-.666C3.138,53.9.844,51.936,1.954,49.125c2.368,2.331,4.624,3.4,8.694,4.143l.444.074V52.306a4.149,4.149,0,0,1,4-4.217,6.8,6.8,0,0,1,2.664.962.848.848,0,0,0,.666.074c.555-.185,1.221-.444,1.961-.74a5.913,5.913,0,0,1-1.369,1.554.445.445,0,0,0-.111.518.367.367,0,0,0,.481.185l1.443-.481A2.614,2.614,0,0,1,19.452,51.455Z" transform="translate(-0.001 -47.348)"/></g></g></svg>