<svg xmlns="http://www.w3.org/2000/svg" xmlns:xlink="http://www.w3.org/1999/xlink" width="20.116" height="14.273" viewBox="0 0 20.116 14.273"><defs><style>.a{fill:url(#a);}</style><linearGradient id="a" x1="0.5" x2="0.5" y2="1" gradientUnits="objectBoundingBox"><stop offset="0" stop-color="#ff416c"/><stop offset="1" stop-color="#ff4b2b"/></linearGradient></defs><path class="a" d="M19.5,11.154a1.324,1.324,0,0,0-1.273-.087l-2.7,1.247v-.046A1.168,1.168,0,0,0,14.361,11.1H12.7V9.336a1.06,1.06,0,0,0-1.059-1.059H.353a.353.353,0,1,0,0,.706H11.646A.353.353,0,0,1,12,9.336V11.1H1.167A1.169,1.169,0,0,0,0,12.267v8.959a1.168,1.168,0,0,0,1.167,1.167H14.361a1.168,1.168,0,0,0,1.167-1.167V21.18l2.7,1.247a1.329,1.329,0,0,0,1.886-1.207V12.274A1.323,1.323,0,0,0,19.5,11.154ZM14.822,21.226a.462.462,0,0,1-.461.461H1.167a.462.462,0,0,1-.461-.461V12.267a.462.462,0,0,1,.461-.461H14.361a.462.462,0,0,1,.461.461v8.959Zm4.588-.006a.623.623,0,0,1-.884.566l-3-1.383V13.091l3-1.383a.623.623,0,0,1,.885.566Z" transform="translate(0 -8.277)"/></svg>